<svg width="59" height="58" viewBox="0 0 59 58" fill="none" xmlns="http://www.w3.org/2000/svg">
<path fill-rule="evenodd" clip-rule="evenodd" d="M24.6769 4.17294L26.7734 2.07609C28.3354 0.513785 30.8683 0.513686 32.4305 2.07587L36.3926 6.03805L36.3822 6.04293L57.1004 26.7611C59.4436 29.1043 59.4436 32.9033 57.1004 35.2464L55.9661 36.3807C53.623 38.7239 49.824 38.7239 47.4809 36.3807L37.8668 26.7667V51.7699C37.8668 55.0836 35.1805 57.7699 31.8668 57.7699H30.5929H28.5933H27.3194C24.0057 57.7699 21.3194 55.0836 21.3194 51.7699V26.7667L11.7053 36.3807C9.36218 38.7239 5.56319 38.7239 3.22004 36.3807L2.08573 35.2464C-0.257416 32.9033 -0.257418 29.1043 2.08573 26.7611L24.5928 4.25406C24.6205 4.22633 24.6486 4.19929 24.6769 4.17294Z" fill="#FF336D"/>
</svg>
