<svg width="231" height="96" viewBox="0 0 231 96" fill="none" xmlns="http://www.w3.org/2000/svg">
<g filter="url(#filter0_d_1_1440)">
<path fill-rule="evenodd" clip-rule="evenodd" d="M196.208 16.1196L16.6035 16.1196V79.7485H196.208V58.6454L214.761 47.9343L196.208 37.2231V16.1196Z" fill="#66FFED"/>
</g>
<rect x="10.6226" y="10.1196" width="179.605" height="63.6289" fill="#FF336D"/>
<path d="M58.761 30.2221C59.2837 30.2967 59.6384 30.4554 59.8251 30.6981C60.0304 30.9407 60.1331 31.2581 60.1331 31.6501C60.1331 32.9381 59.4424 33.5354 58.0611 33.4421L57.081 33.3581C55.9797 33.2647 54.8784 33.1901 53.7771 33.1341C52.6944 33.0781 51.5557 33.0501 50.361 33.0501H49.1011C48.877 35.8127 48.6437 38.3327 48.401 40.6101L53.217 40.5261C53.9077 40.5261 54.365 40.6474 54.589 40.8901C54.8317 41.1327 54.9531 41.4594 54.9531 41.8701C54.9531 42.5047 54.7664 43.0087 54.393 43.3821C54.0197 43.7367 53.4877 43.9141 52.797 43.9141H48.009L47.841 45.1181C47.449 48.1981 46.609 50.3914 45.321 51.6981C44.0517 53.0047 42.297 53.6581 40.057 53.6581C38.7877 53.6581 37.621 53.3874 36.557 52.8461C35.493 52.2861 34.709 51.6141 34.205 50.8301C33.9997 50.5127 33.897 50.1301 33.897 49.6821C33.897 49.2341 33.9997 48.8421 34.205 48.5061C34.429 48.1701 34.6997 48.0021 35.017 48.0021C35.241 48.0021 35.4557 48.0767 35.661 48.2261C35.885 48.3754 36.165 48.6647 36.501 49.0941C37.397 50.2701 38.5077 50.8581 39.833 50.8581C40.897 50.8581 41.7837 50.4287 42.493 49.5701C43.221 48.6927 43.6877 47.3207 43.893 45.4541L44.061 43.9141H42.717C42.2877 43.9141 41.9144 43.7927 41.597 43.5501C41.2984 43.3074 41.149 42.9621 41.149 42.5141C41.149 41.9354 41.2984 41.4967 41.597 41.1981C41.8957 40.8807 42.3344 40.7221 42.913 40.7221C43.4357 40.7221 43.949 40.7127 44.453 40.6941C44.677 38.6407 44.9197 36.1487 45.181 33.2181C43.165 33.4047 41.7464 33.7314 40.925 34.1981C40.1037 34.6647 39.693 35.3554 39.693 36.2701C39.693 36.9047 39.8797 37.5114 40.253 38.0901C40.365 38.2581 40.421 38.4261 40.421 38.5941C40.421 38.9301 40.2344 39.2287 39.861 39.4901C39.4877 39.7327 39.0677 39.8541 38.601 39.8541C38.097 39.8541 37.6677 39.7047 37.313 39.4061C37.089 39.2194 36.8744 38.8367 36.669 38.2581C36.4637 37.6794 36.361 37.0354 36.361 36.3261C36.361 34.0114 37.5464 32.3314 39.917 31.2861C42.3064 30.2407 45.7877 29.7181 50.361 29.7181C53.5344 29.7181 56.3344 29.8861 58.761 30.2221ZM69.2092 44.8381C69.4519 44.8381 69.6385 44.9594 69.7692 45.2021C69.8999 45.4447 69.9652 45.7527 69.9652 46.1261C69.9652 47.0221 69.6945 47.5541 69.1532 47.7221C68.0332 48.1141 66.8012 48.3381 65.4572 48.3941C65.1025 49.9621 64.4025 51.2221 63.3572 52.1741C62.3119 53.1074 61.1265 53.5741 59.8012 53.5741C58.6812 53.5741 57.7199 53.3034 56.9172 52.7621C56.1332 52.2207 55.5359 51.5021 55.1252 50.6061C54.7145 49.7101 54.5092 48.7394 54.5092 47.6941C54.5092 46.2754 54.7799 45.0154 55.3212 43.9141C55.8625 42.7941 56.6092 41.9261 57.5612 41.3101C58.5132 40.6754 59.5679 40.3581 60.7252 40.3581C62.1439 40.3581 63.2825 40.8527 64.1412 41.8421C65.0185 42.8127 65.5319 44.0167 65.6812 45.4541C66.5585 45.3981 67.6039 45.2114 68.8172 44.8941C68.9665 44.8567 69.0972 44.8381 69.2092 44.8381ZM60.0252 50.6061C60.6225 50.6061 61.1359 50.3634 61.5652 49.8781C62.0132 49.3927 62.3119 48.6927 62.4612 47.7781C61.8825 47.3861 61.4345 46.8727 61.1172 46.2381C60.8185 45.6034 60.6692 44.9314 60.6692 44.2221C60.6692 43.9234 60.6972 43.6247 60.7532 43.3261H60.6132C59.8665 43.3261 59.2412 43.6901 58.7372 44.4181C58.2519 45.1274 58.0092 46.1354 58.0092 47.4421C58.0092 48.4687 58.2052 49.2527 58.5972 49.7941C59.0079 50.3354 59.4839 50.6061 60.0252 50.6061ZM78.174 47.1901C78.4167 47.1901 78.6034 47.3021 78.734 47.5261C78.8834 47.7501 78.958 48.0581 78.958 48.4501C78.958 49.1967 78.7807 49.7754 78.426 50.1861C77.6234 51.1754 76.746 51.9874 75.794 52.6221C74.8607 53.2567 73.7967 53.5741 72.602 53.5741C70.9594 53.5741 69.7367 52.8274 68.934 51.3341C68.15 49.8407 67.758 47.9087 67.758 45.5381C67.758 43.2607 68.0474 40.6661 68.626 37.7541C69.2234 34.8421 70.0914 32.3407 71.23 30.2501C72.3874 28.1594 73.7594 27.1141 75.346 27.1141C76.242 27.1141 76.942 27.5341 77.446 28.3741C77.9687 29.1954 78.23 30.3807 78.23 31.9301C78.23 34.1514 77.614 36.7274 76.382 39.6581C75.15 42.5887 73.4794 45.4914 71.37 48.3661C71.5007 49.1314 71.7154 49.6821 72.014 50.0181C72.3127 50.3354 72.7047 50.4941 73.19 50.4941C73.9554 50.4941 74.6274 50.2794 75.206 49.8501C75.7847 49.4021 76.522 48.6461 77.418 47.5821C77.642 47.3207 77.894 47.1901 78.174 47.1901ZM74.73 29.8861C74.3007 29.8861 73.8154 30.6607 73.274 32.2101C72.7327 33.7594 72.2567 35.6821 71.846 37.9781C71.4354 40.2741 71.2114 42.4767 71.174 44.5861C72.4994 42.4021 73.554 40.2181 74.338 38.0341C75.122 35.8314 75.514 33.8247 75.514 32.0141C75.514 30.5954 75.2527 29.8861 74.73 29.8861ZM87.3068 47.1901C87.5495 47.1901 87.7362 47.3021 87.8668 47.5261C88.0162 47.7501 88.0908 48.0581 88.0908 48.4501C88.0908 49.1967 87.9135 49.7754 87.5588 50.1861C86.7562 51.1754 85.8788 51.9874 84.9268 52.6221C83.9935 53.2567 82.9295 53.5741 81.7348 53.5741C80.0922 53.5741 78.8695 52.8274 78.0668 51.3341C77.2828 49.8407 76.8908 47.9087 76.8908 45.5381C76.8908 43.2607 77.1802 40.6661 77.7588 37.7541C78.3562 34.8421 79.2242 32.3407 80.3628 30.2501C81.5202 28.1594 82.8922 27.1141 84.4788 27.1141C85.3748 27.1141 86.0748 27.5341 86.5788 28.3741C87.1015 29.1954 87.3628 30.3807 87.3628 31.9301C87.3628 34.1514 86.7468 36.7274 85.5148 39.6581C84.2828 42.5887 82.6122 45.4914 80.5028 48.3661C80.6335 49.1314 80.8482 49.6821 81.1468 50.0181C81.4455 50.3354 81.8375 50.4941 82.3228 50.4941C83.0882 50.4941 83.7602 50.2794 84.3388 49.8501C84.9175 49.4021 85.6548 48.6461 86.5508 47.5821C86.7748 47.3207 87.0268 47.1901 87.3068 47.1901ZM83.8628 29.8861C83.4335 29.8861 82.9482 30.6607 82.4068 32.2101C81.8655 33.7594 81.3895 35.6821 80.9788 37.9781C80.5682 40.2741 80.3442 42.4767 80.3068 44.5861C81.6322 42.4021 82.6868 40.2181 83.4708 38.0341C84.2548 35.8314 84.6468 33.8247 84.6468 32.0141C84.6468 30.5954 84.3855 29.8861 83.8628 29.8861ZM100.108 44.8381C100.35 44.8381 100.537 44.9594 100.668 45.2021C100.798 45.4447 100.864 45.7527 100.864 46.1261C100.864 47.0221 100.593 47.5541 100.052 47.7221C98.9316 48.1141 97.6996 48.3381 96.3556 48.3941C96.001 49.9621 95.301 51.2221 94.2556 52.1741C93.2103 53.1074 92.025 53.5741 90.6996 53.5741C89.5796 53.5741 88.6183 53.3034 87.8156 52.7621C87.0316 52.2207 86.4343 51.5021 86.0236 50.6061C85.613 49.7101 85.4076 48.7394 85.4076 47.6941C85.4076 46.2754 85.6783 45.0154 86.2196 43.9141C86.761 42.7941 87.5076 41.9261 88.4596 41.3101C89.4116 40.6754 90.4663 40.3581 91.6236 40.3581C93.0423 40.3581 94.181 40.8527 95.0396 41.8421C95.917 42.8127 96.4303 44.0167 96.5796 45.4541C97.457 45.3981 98.5023 45.2114 99.7156 44.8941C99.865 44.8567 99.9956 44.8381 100.108 44.8381ZM90.9236 50.6061C91.521 50.6061 92.0343 50.3634 92.4636 49.8781C92.9116 49.3927 93.2103 48.6927 93.3596 47.7781C92.781 47.3861 92.333 46.8727 92.0156 46.2381C91.717 45.6034 91.5676 44.9314 91.5676 44.2221C91.5676 43.9234 91.5956 43.6247 91.6516 43.3261H91.5116C90.765 43.3261 90.1396 43.6901 89.6356 44.4181C89.1503 45.1274 88.9076 46.1354 88.9076 47.4421C88.9076 48.4687 89.1036 49.2527 89.4956 49.7941C89.9063 50.3354 90.3823 50.6061 90.9236 50.6061ZM115.506 40.3581C116.533 40.3581 117.046 40.6847 117.046 41.3381C117.046 41.5621 116.971 41.8701 116.822 42.2621C115.31 45.7901 113.882 48.6367 112.538 50.8021C111.866 51.8661 111.259 52.5941 110.718 52.9861C110.177 53.3781 109.561 53.5741 108.87 53.5741C108.123 53.5741 107.563 53.2847 107.19 52.7061C106.835 52.1274 106.611 51.1754 106.518 49.8501C106.481 49.3647 106.443 48.6367 106.406 47.6661C105.827 49.2714 105.295 50.5034 104.81 51.3621C104.343 52.2021 103.877 52.7807 103.41 53.0981C102.962 53.4154 102.421 53.5741 101.786 53.5741C101.021 53.5741 100.414 53.2754 99.9659 52.6781C99.5366 52.0807 99.2659 51.1381 99.1539 49.8501C98.9299 47.2367 98.8179 44.9501 98.8179 42.9901V42.0101C98.8366 41.3754 98.9952 40.9461 99.2939 40.7221C99.5926 40.4794 100.078 40.3581 100.75 40.3581C101.235 40.3581 101.59 40.4701 101.814 40.6941C102.057 40.8994 102.178 41.2541 102.178 41.7581C102.178 43.9047 102.309 46.6954 102.57 50.1301C103.186 48.8234 103.755 47.5727 104.278 46.3781C104.801 45.1834 105.407 43.6527 106.098 41.7861C106.303 41.2261 106.546 40.8527 106.826 40.6661C107.125 40.4607 107.47 40.3581 107.862 40.3581C108.385 40.3581 108.777 40.4701 109.038 40.6941C109.299 40.8994 109.43 41.2541 109.43 41.7581V46.0981C109.43 47.9647 109.439 49.3087 109.458 50.1301C110.317 48.6367 111.017 47.3394 111.558 46.2381C112.118 45.1367 112.743 43.6527 113.434 41.7861C113.639 41.2261 113.91 40.8527 114.246 40.6661C114.582 40.4607 115.002 40.3581 115.506 40.3581ZM126.78 53.5741C126.071 53.5741 125.567 53.2007 125.268 52.4541C124.988 51.7074 124.848 50.5127 124.848 48.8701C124.848 46.4434 125.194 44.1381 125.884 41.9541C126.052 41.4127 126.323 41.0207 126.696 40.7781C127.088 40.5167 127.63 40.3861 128.32 40.3861C128.694 40.3861 128.955 40.4327 129.104 40.5261C129.254 40.6194 129.328 40.7967 129.328 41.0581C129.328 41.3567 129.188 42.0287 128.908 43.0741C128.722 43.8207 128.572 44.4741 128.46 45.0341C128.348 45.5754 128.255 46.2567 128.18 47.0781C128.684 45.6221 129.282 44.3901 129.972 43.3821C130.682 42.3741 131.4 41.6274 132.128 41.1421C132.875 40.6381 133.575 40.3861 134.228 40.3861C134.882 40.3861 135.339 40.5354 135.6 40.8341C135.88 41.1327 136.02 41.5901 136.02 42.2061C136.02 42.8034 135.843 43.8861 135.488 45.4541C135.339 46.1261 135.236 46.6301 135.18 46.9661C136.114 44.6701 137.15 42.9994 138.288 41.9541C139.427 40.9087 140.491 40.3861 141.48 40.3861C142.694 40.3861 143.3 40.9927 143.3 42.2061C143.3 42.9341 143.095 44.2501 142.684 46.1541C142.33 47.7781 142.152 48.8514 142.152 49.3741C142.152 50.1207 142.423 50.4941 142.964 50.4941C143.338 50.4941 143.776 50.2701 144.28 49.8221C144.803 49.3554 145.494 48.6087 146.352 47.5821C146.576 47.3207 146.828 47.1901 147.108 47.1901C147.351 47.1901 147.538 47.3021 147.668 47.5261C147.818 47.7501 147.892 48.0581 147.892 48.4501C147.892 49.1967 147.715 49.7754 147.36 50.1861C146.558 51.1754 145.69 51.9874 144.756 52.6221C143.842 53.2567 142.796 53.5741 141.62 53.5741C140.668 53.5741 139.95 53.3034 139.464 52.7621C138.979 52.2021 138.736 51.3994 138.736 50.3541C138.736 49.8314 138.867 48.8981 139.128 47.5541C139.371 46.3781 139.492 45.5661 139.492 45.1181C139.492 44.8194 139.39 44.6701 139.184 44.6701C138.942 44.6701 138.596 44.9874 138.148 45.6221C137.7 46.2381 137.252 47.0594 136.804 48.0861C136.356 49.1127 135.992 50.1954 135.712 51.3341C135.507 52.2301 135.264 52.8274 134.984 53.1261C134.723 53.4247 134.294 53.5741 133.696 53.5741C133.08 53.5741 132.614 53.2847 132.296 52.7061C131.998 52.1087 131.848 51.3901 131.848 50.5501C131.848 49.8407 131.942 48.8141 132.128 47.4701C132.278 46.2754 132.352 45.4914 132.352 45.1181C132.352 44.8194 132.25 44.6701 132.044 44.6701C131.764 44.6701 131.41 45.0061 130.98 45.6781C130.551 46.3501 130.131 47.2087 129.72 48.2541C129.328 49.2994 129.011 50.3261 128.768 51.3341C128.563 52.2114 128.32 52.8087 128.04 53.1261C127.779 53.4247 127.359 53.5741 126.78 53.5741ZM155.652 48.0301C155.895 48.0301 156.082 48.1421 156.212 48.3661C156.362 48.5901 156.436 48.8981 156.436 49.2901C156.436 49.9621 156.278 50.5407 155.96 51.0261C155.438 51.8287 154.747 52.4541 153.888 52.9021C153.048 53.3501 152.04 53.5741 150.864 53.5741C149.072 53.5741 147.682 53.0421 146.692 51.9781C145.703 50.8954 145.208 49.4394 145.208 47.6101C145.208 46.3221 145.479 45.1274 146.02 44.0261C146.562 42.9061 147.308 42.0194 148.26 41.3661C149.231 40.7127 150.323 40.3861 151.536 40.3861C152.619 40.3861 153.487 40.7127 154.14 41.3661C154.794 42.0007 155.12 42.8687 155.12 43.9701C155.12 45.2581 154.654 46.3687 153.72 47.3021C152.806 48.2167 151.238 48.9447 149.016 49.4861C149.464 50.3447 150.22 50.7741 151.284 50.7741C152.05 50.7741 152.675 50.5967 153.16 50.2421C153.664 49.8874 154.243 49.2901 154.896 48.4501C155.12 48.1701 155.372 48.0301 155.652 48.0301ZM151.06 43.1301C150.37 43.1301 149.782 43.5314 149.296 44.3341C148.83 45.1367 148.596 46.1074 148.596 47.2461V47.3021C149.698 47.0407 150.566 46.6487 151.2 46.1261C151.835 45.6034 152.152 44.9967 152.152 44.3061C152.152 43.9514 152.05 43.6714 151.844 43.4661C151.658 43.2421 151.396 43.1301 151.06 43.1301ZM161.534 46.8821C161.161 46.8821 160.853 46.7981 160.61 46.6301C160.367 46.4621 160.246 46.2007 160.246 45.8461L160.274 45.6221C160.591 43.5314 161.021 41.1514 161.562 38.4821C162.103 35.8127 162.607 33.5074 163.074 31.5661C163.373 30.3714 164.185 29.7741 165.51 29.7741C166.705 29.7741 167.302 30.1567 167.302 30.9221C167.302 31.0901 167.274 31.2767 167.218 31.4821C166.733 33.4607 166.089 35.8594 165.286 38.6781C164.483 41.4781 163.718 43.9141 162.99 45.9861C162.785 46.5834 162.299 46.8821 161.534 46.8821ZM160.47 53.5741C159.649 53.5741 159.023 53.3501 158.594 52.9021C158.183 52.4541 157.978 51.8661 157.978 51.1381C157.978 50.2981 158.211 49.6261 158.678 49.1221C159.163 48.6181 159.835 48.3661 160.694 48.3661C161.515 48.3661 162.131 48.5714 162.542 48.9821C162.971 49.3741 163.186 49.9621 163.186 50.7461C163.186 51.6047 162.943 52.2954 162.458 52.8181C161.973 53.3221 161.31 53.5741 160.47 53.5741Z" fill="#1A0007"/>
<defs>
<filter id="filter0_d_1_1440" x="0.603516" y="0.119629" width="230.157" height="95.6289" filterUnits="userSpaceOnUse" color-interpolation-filters="sRGB">
<feFlood flood-opacity="0" result="BackgroundImageFix"/>
<feColorMatrix in="SourceAlpha" type="matrix" values="0 0 0 0 0 0 0 0 0 0 0 0 0 0 0 0 0 0 127 0" result="hardAlpha"/>
<feOffset/>
<feGaussianBlur stdDeviation="8"/>
<feComposite in2="hardAlpha" operator="out"/>
<feColorMatrix type="matrix" values="0 0 0 0 0.4 0 0 0 0 1 0 0 0 0 0.929412 0 0 0 1 0"/>
<feBlend mode="normal" in2="BackgroundImageFix" result="effect1_dropShadow_1_1440"/>
<feBlend mode="normal" in="SourceGraphic" in2="effect1_dropShadow_1_1440" result="shape"/>
</filter>
</defs>
</svg>
