<svg width="37" height="36" viewBox="0 0 37 36" fill="none" xmlns="http://www.w3.org/2000/svg">
<path fill-rule="evenodd" clip-rule="evenodd" d="M18 0.443848C8.0595 0.443848 0 8.50185 0 18.4438C0 26.3968 5.157 33.1438 12.309 35.5243C13.209 35.6908 13.539 35.1343 13.539 34.6588C13.539 34.2298 13.5225 32.8123 13.515 31.3078C8.508 32.3968 7.4505 29.1838 7.4505 29.1838C6.6315 27.1033 5.4525 26.5498 5.4525 26.5498C3.819 25.4323 5.5755 25.4563 5.5755 25.4563C7.383 25.5838 8.334 27.3118 8.334 27.3118C9.939 30.0628 12.5445 29.2678 13.572 28.8073C13.734 27.6433 14.2005 26.8498 14.715 26.3998C10.7175 25.9453 6.5145 24.4018 6.5145 17.5048C6.5145 15.5398 7.218 13.9333 8.37 12.6733C8.1825 12.2188 7.566 10.3888 8.544 7.90935C8.544 7.90935 10.056 7.42635 13.4955 9.75435C14.931 9.35535 16.47 9.15585 18 9.14835C19.53 9.15585 21.0705 9.35535 22.509 9.75435C25.944 7.42485 27.4545 7.90935 27.4545 7.90935C28.434 10.3888 27.8175 12.2188 27.6315 12.6733C28.785 13.9333 29.484 15.5398 29.484 17.5048C29.484 24.4183 25.2735 25.9408 21.2655 26.3863C21.9105 26.9443 22.4865 28.0408 22.4865 29.7193C22.4865 32.1283 22.4655 34.0663 22.4655 34.6588C22.4655 35.1373 22.7895 35.6998 23.7015 35.5228C30.8505 33.1393 36.0015 26.3953 36.0015 18.4453C36 8.50335 27.9405 0.443848 18 0.443848Z" fill="#FF336D"/>
<path d="M6.81755 26.2889C6.77855 26.3789 6.63755 26.4059 6.50855 26.3444C6.37805 26.2859 6.30455 26.1629 6.34655 26.0744C6.38555 25.9829 6.52655 25.9574 6.65705 26.0189C6.78755 26.0759 6.86255 26.1989 6.81755 26.2889Z" fill="#FF336D"/>
<path d="M7.54651 27.1017C7.46101 27.1812 7.29301 27.1437 7.17901 27.0192C7.06051 26.8932 7.03951 26.7252 7.12651 26.6457C7.21501 26.5662 7.37701 26.6037 7.49551 26.7297C7.61401 26.8542 7.63651 27.0207 7.54651 27.1017Z" fill="#FF336D"/>
<path d="M8.256 28.1382C8.145 28.2147 7.965 28.1427 7.854 27.9837C7.743 27.8232 7.743 27.6312 7.857 27.5547C7.968 27.4782 8.1465 27.5472 8.259 27.7062C8.3685 27.8682 8.3685 28.0602 8.256 28.1382Z" fill="#FF336D"/>
<path d="M9.22805 29.1403C9.12905 29.2498 8.91905 29.2198 8.76605 29.0713C8.60855 28.9258 8.56505 28.7203 8.66405 28.6108C8.76455 28.5013 8.97605 28.5328 9.13055 28.6798C9.28655 28.8253 9.33305 29.0323 9.22805 29.1403Z" fill="#FF336D"/>
<path d="M10.5705 29.7209C10.527 29.8619 10.3245 29.9264 10.1205 29.8664C9.91649 29.8049 9.78299 29.6399 9.82499 29.4974C9.86699 29.3549 10.071 29.2889 10.2765 29.3534C10.479 29.4134 10.6125 29.5784 10.5705 29.7209Z" fill="#FF336D"/>
<path d="M12.0435 29.829C12.048 29.9775 11.8755 30.1005 11.661 30.1035C11.4465 30.108 11.271 29.988 11.2695 29.8425C11.2695 29.6925 11.439 29.571 11.6535 29.5665C11.868 29.562 12.0435 29.682 12.0435 29.829Z" fill="#FF336D"/>
<path d="M13.4145 29.5963C13.44 29.7403 13.2915 29.8903 13.0785 29.9293C12.87 29.9683 12.6765 29.8783 12.6495 29.7343C12.624 29.5858 12.7755 29.4373 12.984 29.3983C13.1955 29.3608 13.3875 29.4478 13.4145 29.5963Z" fill="#FF336D"/>
</svg>
