<svg width="34" height="35" viewBox="0 0 34 35" fill="none" xmlns="http://www.w3.org/2000/svg">
<path d="M28.4465 29.5985H23.4995V21.8001C23.4995 19.9404 23.4666 17.5474 20.9265 17.5474C18.3501 17.5474 17.9553 19.5727 17.9553 21.666V29.5985H13.0099V13.5612H17.7595V15.7522H17.8253C18.7943 14.0862 20.5941 13.0909 22.5107 13.1621C27.5252 13.1621 28.4481 16.4825 28.4481 20.7998L28.4465 29.5985ZM7.4279 11.3686C5.84197 11.3686 4.5571 10.0752 4.5571 8.47879C4.5571 6.88235 5.84197 5.58897 7.4279 5.58897C9.01384 5.58897 10.2987 6.88235 10.2987 8.47879C10.2987 10.0752 9.01384 11.3686 7.4279 11.3686ZM9.90058 29.5985H4.94865V13.5612H9.90058V29.5985ZM30.9126 0.965261H2.46281C1.11871 0.950357 0.0164516 2.03507 0 3.38807V32.1438C0.0164516 33.4985 1.11871 34.5832 2.46281 34.5683H30.9126C32.26 34.5849 33.3672 33.5001 33.3853 32.1438V3.38642C33.3655 2.03011 32.2583 0.945388 30.9126 0.963605" fill="#FF336D"/>
</svg>
